<?xml version="1.0" encoding="utf-8"?>
<!-- Generated by IcoMoon.io -->
<!DOCTYPE svg PUBLIC "-//W3C//DTD SVG 1.1//EN" "http://www.w3.org/Graphics/SVG/1.1/DTD/svg11.dtd">
<svg version="1.1" xmlns="http://www.w3.org/2000/svg" xmlns:xlink="http://www.w3.org/1999/xlink" width="35" height="32" viewBox="0 0 35 32">
<path fill="none" stroke="#914f28" stroke-width="2.2060" stroke-miterlimit="10" stroke-linecap="butt" stroke-linejoin="miter" d="M34.020 11.795l-0.032 0.032"></path>
<path fill="#a9972e" d="M15.001 5.188l-10.631 9.839-4.369-4.183c0-0.223 0-0.452 0-0.675-0.027-4.268 0.436-8.898 5.518-9.924 4.050-0.824 6.809 2.413 9.483 4.944z"></path>
<path fill="#c6b663" d="M30.15 12.672l-14.884 13.624-1.892 2.27c-0.319 0.353-0.667 0.669-1.044 0.949l-0.019 0.014c-2.355 1.983-4.524 3.248-7.718 1.924s-4.433-4.253-4.513-7.495c-0.080-4.364-0.080-8.744-0.080-13.114l4.338 4.183 10.631-9.839h0.027c2.674-2.53 5.385-5.842 9.456-5.076 5.114 0.952 5.64 5.581 5.666 9.85 0.011 0.904 0.021 1.807 0.032 2.711z"></path>
<path fill="#b2a03a" d="M30.214 23.755c-0.032 3.264-1.207 6.177-4.412 7.553s-5.353 0.133-7.729-1.818v0c-0.396-0.289-0.744-0.6-1.059-0.941l-1.748-2.248 14.884-13.624c0.048 3.689 0.106 7.383 0.064 11.078z"></path>
</svg>
