<?xml version="1.0" encoding="utf-8"?>
<!-- Generated by IcoMoon.io -->
<!DOCTYPE svg PUBLIC "-//W3C//DTD SVG 1.1//EN" "http://www.w3.org/Graphics/SVG/1.1/DTD/svg11.dtd">
<svg version="1.1" xmlns="http://www.w3.org/2000/svg" xmlns:xlink="http://www.w3.org/1999/xlink" width="30" height="32" viewBox="0 0 30 32">
<path fill="#52bdd3" d="M30.217 23.753c-0.035 3.262-1.209 6.174-4.411 7.553s-5.36 0.135-7.743-1.818v0c-0.402-0.289-0.755-0.599-1.075-0.94l-1.747-2.247-10.895-11.274 10.64-9.841 0.025 0.025c2.662-2.543 5.37-5.864 9.466-5.095 5.090 0.959 5.615 5.58 5.645 9.846q0 1.354 0.030 2.712c0.050 3.692 0.105 7.393 0.065 11.080z"></path>
<path fill="#3e8fa5" d="M15.266 26.3l-1.893 2.268c-0.315 0.354-0.657 0.67-1.026 0.951l-0.018 0.013c-2.358 1.998-4.526 3.247-7.718 1.923s-4.436-4.231-4.516-7.478c-0.095-4.386-0.095-8.762-0.095-13.133 0-0.225 0-0.45 0-0.679-0.030-4.266 0.435-8.892 5.495-9.921 4.061-0.824 6.814 2.438 9.491 4.945l-10.64 9.836z"></path>
</svg>
