<?xml version="1.0" encoding="utf-8"?>
<!-- Generated by IcoMoon.io -->
<!DOCTYPE svg PUBLIC "-//W3C//DTD SVG 1.1//EN" "http://www.w3.org/Graphics/SVG/1.1/DTD/svg11.dtd">
<svg version="1.1" xmlns="http://www.w3.org/2000/svg" xmlns:xlink="http://www.w3.org/1999/xlink" width="30" height="32" viewBox="0 0 30 32">
<path fill="#32859c" d="M22.872 31.893c-2.19 0-3.915-1.207-5.413-2.431v0c-0.419-0.309-0.787-0.642-1.12-1.007l-0.038-0.047-1.626-2.092-10.913-11.258 11.324-10.467 0.274-0.274c2.333-2.3 4.966-4.92 8.827-4.194 5.977 1.125 6.023 7.22 6.040 10.149q0 1.276 0.030 2.554v0.972c0.041 3.135 0.082 6.374 0.047 9.563-0.041 3.877-1.662 6.617-4.684 7.918-0.806 0.373-1.748 0.598-2.741 0.613zM18.245 27.962v0l0.23 0.189c2.281 1.867 3.989 2.678 6.483 1.602 2.407-1.038 3.644-3.192 3.677-6.407v0c0.033-3.17 0-6.401-0.047-9.525v-0.961c0-0.865-0.022-1.719-0.030-2.574-0.033-4.728-0.821-7.8-4.682-8.526-3.012-0.567-5.202 1.643-7.337 3.751-0.296 0.293-0.589 0.583-0.879 0.865l-0.548 0.526-0.038-0.033-8.931 8.246 9.791 10.105 1.662 2.144c0.199 0.216 0.411 0.412 0.637 0.591z"></path>
<path fill="#32859c" d="M7.567 32c-0.973-0.012-1.893-0.221-2.728-0.59-2.994-1.245-4.654-3.961-4.747-7.837-0.079-3.192-0.093-6.437-0.093-9.577q0-1.44 0-2.877c0-0.214 0-0.427 0-0.641-0.016-2.927-0.060-9.021 5.9-10.229 3.849-0.78 6.522 1.804 8.884 4.082 0.274 0.274 0.567 0.548 0.849 0.821l0.646 0.597-10.13 9.358 10.278 10.628-2.272 2.738c-0.33 0.376-0.689 0.712-1.077 1.011-1.532 1.256-3.273 2.515-5.51 2.515zM7.244 1.777c-0.359 0.001-0.709 0.039-1.046 0.11-3.811 0.774-4.555 3.863-4.531 8.583 0 0.216 0 0.433 0 0.649q0 1.437 0 2.877c0 3.129 0 6.366 0.082 9.536s1.344 5.352 3.765 6.355c2.486 1.029 4.178 0.219 6.409-1.643v0l0.068-0.052c0.325-0.247 0.612-0.514 0.871-0.807l1.312-1.572-10.412-10.754 10.078-9.309-0.219-0.211c-1.911-1.856-3.88-3.762-6.376-3.762z"></path>
</svg>
