<?xml version="1.0" encoding="utf-8"?>
<!-- Generated by IcoMoon.io -->
<!DOCTYPE svg PUBLIC "-//W3C//DTD SVG 1.1//EN" "http://www.w3.org/Graphics/SVG/1.1/DTD/svg11.dtd">
<svg version="1.1" xmlns="http://www.w3.org/2000/svg" xmlns:xlink="http://www.w3.org/1999/xlink" width="30" height="32" viewBox="0 0 30 32">
<path fill="#1d1d1d" d="M15 5.184l-10.638 9.845-4.363-4.181v-0.669c0-4.283 0.436-8.907 5.519-9.94 4.065-0.822 6.842 2.443 9.481 4.944z"></path>
<path fill="#2f2f2f" d="M30.153 12.673l-14.884 13.626-10.907-11.27 10.638-9.845c2.647-2.545 5.351-5.868 9.452-5.090 5.090 0.96 5.621 5.577 5.65 9.852q0.036 1.374 0.051 2.727z"></path>
<path fill="#0e0e0e" d="M15.269 26.299l-1.89 2.269c-0.308 0.355-0.641 0.672-1.002 0.955l-0.016 0.012c-2.356 1.985-4.523 3.243-7.715 1.927s-4.472-4.239-4.552-7.467c-0.095-4.363-0.095-8.776-0.095-13.146l4.363 4.181z"></path>
<path fill="#3f3f3f" d="M30.219 23.755c0 3.265-1.207 6.173-4.414 7.555s-5.359 0.131-7.744-1.818v0c-0.395-0.289-0.743-0.599-1.057-0.94l-1.735-2.252 14.884-13.626c0.051 3.694 0.102 7.395 0.065 11.081z"></path>
</svg>
