<?xml version="1.0" encoding="utf-8"?>
<!-- Generated by IcoMoon.io -->
<!DOCTYPE svg PUBLIC "-//W3C//DTD SVG 1.1//EN" "http://www.w3.org/Graphics/SVG/1.1/DTD/svg11.dtd">
<svg version="1.1" xmlns="http://www.w3.org/2000/svg" xmlns:xlink="http://www.w3.org/1999/xlink" width="30" height="32" viewBox="0 0 30 32">
<path d="M4.941 16.227l-4.941-4.756v-0.355c0-0.213 0-0.426 0-0.638 0-2.913-0.061-9.021 5.901-10.227 3.849-0.78 6.52 1.806 8.879 4.085 0.284 0.274 0.567 0.548 0.846 0.813l0.652 0.61zM1.669 10.761l3.31 3.177 8.861-8.199-0.217-0.213c-2.161-2.090-4.397-4.255-7.39-3.65-3.844 0.785-4.596 3.868-4.563 8.591z"></path>
<path d="M7.565 32c-0.973-0.011-1.895-0.221-2.73-0.59-2.991-1.245-4.646-3.964-4.74-7.836-0.095-3.196-0.095-6.44-0.095-9.579q0-1.418 0-2.879v-1.962l4.965 4.785 10.123-9.348 0.274-0.269c2.331-2.303 4.969-4.922 8.827-4.199 5.972 1.125 6.014 7.22 6.038 10.151q0 1.277 0.028 2.558v0.374l-0.274 0.265-14.071 12.875-1.759 2.109c-0.332 0.377-0.693 0.714-1.084 1.013-1.522 1.266-3.262 2.533-5.503 2.533zM1.669 13.087v0.908c0 3.13 0 6.364 0.080 9.537s1.348 5.352 3.783 6.355 4.18 0.222 6.407-1.645v0l0.066-0.052c0.323-0.242 0.608-0.503 0.865-0.789l1.868-2.228 13.849-12.686q0-1.102-0.024-2.203c-0.033-4.728-0.827-7.801-4.681-8.511-3.002-0.577-5.206 1.617-7.333 3.735-0.293 0.293-0.586 0.586-0.879 0.865l-0.539 0.534-0.038-0.033-10.151 9.352z"></path>
</svg>
