<?xml version="1.0" encoding="utf-8"?>
<!-- Generated by IcoMoon.io -->
<!DOCTYPE svg PUBLIC "-//W3C//DTD SVG 1.1//EN" "http://www.w3.org/Graphics/SVG/1.1/DTD/svg11.dtd">
<svg version="1.1" xmlns="http://www.w3.org/2000/svg" xmlns:xlink="http://www.w3.org/1999/xlink" width="30" height="32" viewBox="0 0 30 32">
<path d="M15.273 26.93l-10.899-11.259-4.374-4.198v-0.995c0-2.924-0.057-9.022 5.9-10.226 3.848-0.777 6.52 1.805 8.875 4.085l0.299 0.289 0.289-0.289c2.331-2.317 4.966-4.938 8.804-4.213 5.999 1.123 6.042 7.222 6.061 10.15q0 0.99 0 1.99v0.948zM1.668 10.761l3.881 3.744 9.795 10.103 13.244-12.121v-0.204q0-1 0-1.995c-0.033-4.739-0.829-7.8-4.682-8.53-3-0.564-5.213 1.63-7.34 3.753-0.294 0.294-0.588 0.583-0.881 0.867l-0.588 0.569-0.578-0.578c-0.294-0.275-0.583-0.554-0.872-0.839-2.161-2.090-4.397-4.265-7.388-3.649-3.89 0.777-4.625 3.862-4.592 8.586z"></path>
<path d="M7.582 32c-0.972-0.012-1.892-0.222-2.727-0.591-3.012-1.243-4.666-3.958-4.76-7.834-0.095-3.199-0.095-6.44-0.095-9.582q0-1.422 0-2.876v-1.967l5.554 5.355 10.87 11.221-2.275 2.706c-0.328 0.373-0.685 0.706-1.072 1.001l-0.018 0.013c-1.507 1.294-3.251 2.554-5.478 2.554zM1.677 13.079v0.915c0 3.128 0 6.364 0.081 9.539s1.346 5.374 3.767 6.355 4.052 0.275 6.16-1.422v0l0.322-0.251c0.322-0.242 0.606-0.503 0.862-0.79l1.313-1.574-9.818-10.179z"></path>
<path d="M22.873 31.896c-2.194 0-3.924-1.218-5.426-2.44-0.414-0.311-0.779-0.647-1.107-1.016l-0.040-0.007-2.123-2.734 16.055-14.69 0.033 2.692c0.043 3.175 0.085 6.459 0.052 9.691-0.043 3.876-1.659 6.634-4.686 7.918-0.811 0.367-1.759 0.583-2.756 0.588zM17.599 27.366c0.265 0.28 0.553 0.533 0.864 0.756l0.046 0.012c2.284 1.867 3.99 2.677 6.482 1.602 2.407-1.038 3.644-3.194 3.677-6.407v0c0.028-2.843 0-5.781-0.038-8.629l-12.197 11.164z"></path>
</svg>
