<?xml version="1.0" encoding="utf-8"?>
<!-- Generated by IcoMoon.io -->
<!DOCTYPE svg PUBLIC "-//W3C//DTD SVG 1.1//EN" "http://www.w3.org/Graphics/SVG/1.1/DTD/svg11.dtd">
<svg version="1.1" xmlns="http://www.w3.org/2000/svg" xmlns:xlink="http://www.w3.org/1999/xlink" width="30" height="32" viewBox="0 0 30 32">
<path fill="none" stroke="#000" stroke-width="2.6661" stroke-miterlimit="10" stroke-linecap="butt" stroke-linejoin="miter" d="M15.090 6.085l-9.758 9.025-3.999-3.833v-0.613c0-3.913 0.4-8.158 5.059-9.098 3.733-0.766 6.272 2.226 8.698 4.519z"></path>
<path fill="none" stroke="#000" stroke-width="2.6661" stroke-miterlimit="10" stroke-linecap="butt" stroke-linejoin="miter" d="M28.981 12.951l-13.65 12.491-9.998-10.331 9.758-9.025c2.426-2.333 4.906-5.379 8.665-4.666 4.666 0.88 5.152 5.112 5.179 9.031q0.033 1.26 0.047 2.499z"></path>
<path fill="none" stroke="#000" stroke-width="2.6661" stroke-miterlimit="10" stroke-linecap="butt" stroke-linejoin="miter" d="M15.33 25.441l-1.733 2.086c-0.282 0.323-0.588 0.611-0.918 0.869l-0.015 0.011c-2.16 1.82-4.146 2.973-7.072 1.766s-4.092-3.886-4.166-6.845c-0.093-3.999-0.093-8.045-0.093-12.051l3.999 3.833z"></path>
<path fill="none" stroke="#000" stroke-width="2.6661" stroke-miterlimit="10" stroke-linecap="butt" stroke-linejoin="miter" d="M29.041 23.109c0 2.993-1.106 5.659-4.046 6.925s-4.912 0.12-7.099-1.666v0c-0.362-0.265-0.681-0.549-0.969-0.862l-1.597-2.064 13.65-12.491c0.047 3.386 0.093 6.779 0.060 10.158z"></path>
</svg>
