<?xml version="1.0" encoding="utf-8"?>
<!-- Generated by IcoMoon.io -->
<!DOCTYPE svg PUBLIC "-//W3C//DTD SVG 1.1//EN" "http://www.w3.org/Graphics/SVG/1.1/DTD/svg11.dtd">
<svg version="1.1" xmlns="http://www.w3.org/2000/svg" xmlns:xlink="http://www.w3.org/1999/xlink" width="30" height="32" viewBox="0 0 30 32">
<path d="M28.857 12.236l0.023-0.021 1.132 1.222-0.023 0.021-1.132-1.222z"></path>
<path d="M4.942 16.23l-4.942-4.738v-0.992c0-2.946-0.057-9.042 5.903-10.249 3.85-0.778 6.519 1.802 8.88 4.080 0.287 0.277 0.569 0.548 0.851 0.815l0.642 0.601zM1.672 10.761l3.296 3.176 8.875-8.191-0.219-0.214c-2.163-2.089-4.398-4.252-7.386-3.657-3.85 0.784-4.602 3.871-4.565 8.572z"></path>
<path d="M7.569 32c-0.973-0.012-1.895-0.223-2.729-0.592-2.996-1.247-4.657-3.958-4.746-7.818-0.094-3.218-0.094-6.456-0.094-9.596q0-1.457 0-2.873v-1.969l4.968 4.785 10.082-9.309 0.308-0.308c2.335-2.304 4.973-4.921 8.828-4.195 5.976 1.123 6.023 7.219 6.039 10.15q0 0.956 0 1.917v1.045l-14.313 13.106-1.76 2.089c-0.329 0.381-0.686 0.721-1.075 1.022l-0.017 0.012c-1.51 1.269-3.249 2.533-5.49 2.533zM1.677 13.059v0.914c0 3.134 0 6.368 0.084 9.538s1.342 5.375 3.766 6.378 4.054 0.277 6.164-1.447v0l0.324-0.251c0.322-0.242 0.606-0.502 0.862-0.788l1.87-2.231 13.843-12.667v-0.277q0-0.961 0-1.928c-0.031-4.701-0.825-7.799-4.701-8.525-2.998-0.564-5.224 1.63-7.339 3.751-0.298 0.293-0.59 0.585-0.878 0.867l-0.585 0.559-0.037-0.037-10.108 9.314z"></path>
<path d="M22.874 31.896c-2.189 0-3.913-1.207-5.412-2.434v0c-0.42-0.308-0.79-0.641-1.123-1.007l-0.037-0.048-2.121-2.737 16.047-14.699 0.037 2.68c0.042 3.181 0.084 6.467 0.052 9.706-0.042 3.876-1.661 6.618-4.701 7.919-0.805 0.376-1.745 0.603-2.736 0.622zM18.246 27.962v0l0.23 0.188c2.293 1.87 3.986 2.669 6.498 1.625 2.408-1.045 3.657-3.192 3.657-6.409v0c0.031-2.868 0-5.783-0.037-8.629l-12.161 11.126 1.165 1.499c0.198 0.217 0.41 0.413 0.636 0.592z"></path>
</svg>
