<?xml version="1.0" encoding="utf-8"?>
<!-- Generated by IcoMoon.io -->
<!DOCTYPE svg PUBLIC "-//W3C//DTD SVG 1.1//EN" "http://www.w3.org/Graphics/SVG/1.1/DTD/svg11.dtd">
<svg version="1.1" xmlns="http://www.w3.org/2000/svg" xmlns:xlink="http://www.w3.org/1999/xlink" width="30" height="32" viewBox="0 0 30 32">
<path d="M4.94 16.244l-4.94-4.778v-0.354c0-0.215 0-0.43 0-0.645 0-2.919-0.057-9.034 5.9-10.219 3.851-0.779 6.521 1.806 8.877 4.085 0.287 0.277 0.569 0.549 0.85 0.812l0.65 0.588zM1.667 10.759l3.296 3.177 8.891-8.203-0.22-0.215c-2.169-2.078-4.414-4.242-7.424-3.636-3.822 0.779-4.577 3.851-4.543 8.585q0 0.148 0 0.291z"></path>
<path d="M7.568 32.010c-0.973-0.012-1.894-0.222-2.729-0.591-2.994-1.253-4.652-3.972-4.743-7.846-0.096-3.234-0.096-6.521-0.096-9.718q0-1.381 0-2.757v-1.944l4.964 4.778 10.076-9.297 0.315-0.311c2.322-2.308 4.973-4.926 8.834-4.199 5.977 1.123 6.015 7.219 6.034 10.148q0 1.276 0.029 2.556v0.956c0.038 3.134 0.081 6.373 0.048 9.555-0.029 3.894-1.634 6.641-4.668 7.945-3.583 1.543-6.106-0.134-8.184-1.835-0.414-0.306-0.778-0.636-1.108-0.997l-0.039-0.049-1.013-1.304-1.132 1.357c-0.332 0.378-0.694 0.715-1.086 1.014-1.528 1.275-3.267 2.541-5.503 2.541zM1.672 13.081q0 0.397 0 0.793c0 3.168 0 6.445 0.081 9.66s1.347 5.351 3.765 6.354c2.494 1.037 4.19 0.215 6.431-1.667l0.053-0.043c0.335-0.243 0.629-0.505 0.894-0.794l2.455-2.942 2.269 2.924c0.26 0.279 0.543 0.53 0.848 0.753l0.046 0.012c2.284 1.868 3.994 2.675 6.483 1.6 2.389-1.037 3.645-3.191 3.679-6.407v0c0.033-3.168 0-6.402-0.048-9.526v-0.956c0-0.865 0-1.72-0.029-2.575-0.072-4.706-0.889-7.783-4.711-8.509-3.010-0.564-5.212 1.634-7.348 3.755-0.296 0.291-0.588 0.583-0.879 0.865l-0.549 0.53-0.038-0.033-10.133 9.369z"></path>
</svg>
