<?xml version="1.0" encoding="utf-8"?>
<!-- Generated by IcoMoon.io -->
<!DOCTYPE svg PUBLIC "-//W3C//DTD SVG 1.1//EN" "http://www.w3.org/Graphics/SVG/1.1/DTD/svg11.dtd">
<svg version="1.1" xmlns="http://www.w3.org/2000/svg" xmlns:xlink="http://www.w3.org/1999/xlink" width="30" height="32" viewBox="0 0 30 32">
<path fill="#a55d32" d="M15.001 5.183l-10.657 9.847-4.344-4.193c0-0.226 0-0.471 0-0.678-0.028-4.259 0.433-8.886 5.517-9.913 4.066-0.825 6.813 2.436 9.484 4.938z"></path>
<path fill="#cc7441" d="M30.153 12.674l-14.888 13.625-1.885 2.271c-0.315 0.345-0.657 0.654-1.027 0.929l-0.019 0.014c-2.356 1.983-4.523 3.246-7.717 1.922s-4.443-4.212-4.523-7.472c-0.094-4.367-0.094-8.749-0.094-13.126l4.344 4.193 10.657-9.847 0.028 0.028c2.643-2.544 5.352-5.866 9.437-5.098 5.098 0.942 5.625 5.578 5.654 9.847q0.033 1.347 0.033 2.714z"></path>
</svg>
