<?xml version="1.0" encoding="utf-8"?>
<!-- Generated by IcoMoon.io -->
<!DOCTYPE svg PUBLIC "-//W3C//DTD SVG 1.1//EN" "http://www.w3.org/Graphics/SVG/1.1/DTD/svg11.dtd">
<svg version="1.1" xmlns="http://www.w3.org/2000/svg" xmlns:xlink="http://www.w3.org/1999/xlink" width="30" height="32" viewBox="0 0 30 32">
<path fill="#a55d32" d="M4.953 16.235l-4.953-4.763v-0.355c0-0.212 0-0.424 0-0.638-0.017-2.928-0.061-9.023 5.902-10.231 3.852-0.779 6.522 1.805 8.877 4.084 0.275 0.275 0.567 0.55 0.848 0.826l0.652 0.614zM1.67 10.762l3.283 3.175 8.888-8.195-0.22-0.212c-2.163-2.091-4.403-4.251-7.391-3.649-3.841 0.779-4.593 3.861-4.56 8.574z"></path>
<path fill="#a55d32" d="M7.57 32c-0.972-0.012-1.893-0.221-2.727-0.59-2.996-1.245-4.655-3.961-4.749-7.839-0.077-3.192-0.094-6.436-0.094-9.576q0-1.439 0-2.878v-1.967l4.953 4.788 10.121-9.356 0.275-0.275c2.344-2.289 4.978-4.909 8.839-4.183 5.977 1.125 6.018 7.221 6.037 10.151q0 1.277 0.030 2.556l0.014 0.377-0.275 0.275-14.083 12.862-1.758 2.108c-0.332 0.376-0.692 0.712-1.083 1.010-1.512 1.279-3.262 2.537-5.5 2.537zM1.676 13.079v0.916c0 3.129 0 6.365 0.083 9.538s1.346 5.352 3.764 6.357c2.477 1.032 4.177 0.22 6.409-1.651v0l0.069-0.052c0.322-0.242 0.606-0.503 0.862-0.79l1.868-2.229 13.841-12.658q-0.014-1.101-0.025-2.201c-0.033-4.728-0.826-7.801-4.678-8.53-2.999-0.55-5.204 1.629-7.339 3.751-0.294 0.275-0.57 0.567-0.87 0.848l-0.55 0.528-0.039-0.025-10.118 9.356z"></path>
</svg>
