<?xml version="1.0" encoding="utf-8"?>
<!-- Generated by IcoMoon.io -->
<!DOCTYPE svg PUBLIC "-//W3C//DTD SVG 1.1//EN" "http://www.w3.org/Graphics/SVG/1.1/DTD/svg11.dtd">
<svg version="1.1" xmlns="http://www.w3.org/2000/svg" xmlns:xlink="http://www.w3.org/1999/xlink" width="30" height="32" viewBox="0 0 30 32">
<path fill="#51a53f" d="M14.997 5.185l-10.654 9.842-4.344-4.182c0-0.225 0-0.45 0-0.68-0.029-4.265 0.435-8.893 5.518-9.92 4.065-0.822 6.809 2.436 9.48 4.94z"></path>
<path fill="#70b95b" d="M30.215 23.753c-0.034 3.263-1.208 6.173-4.402 7.552s-5.381 0.132-7.743-1.815c-0.393-0.29-0.739-0.602-1.052-0.944l-1.756-2.251-1.893 2.27c-0.316 0.36-0.658 0.681-1.030 0.966l-0.017 0.012c-2.353 1.966-4.525 3.228-7.714 1.908s-4.432-4.231-4.51-7.484c-0.098-4.378-0.098-8.756-0.098-13.124l4.339 4.182 10.659-9.842 0.029 0.024c2.646-2.544 5.351-5.865 9.431-5.097 5.097 0.978 5.625 5.581 5.65 9.847q0 1.355 0.034 2.715c0.054 3.693 0.113 7.381 0.073 11.079z"></path>
</svg>
