<?xml version="1.0" encoding="utf-8"?>
<!-- Generated by IcoMoon.io -->
<!DOCTYPE svg PUBLIC "-//W3C//DTD SVG 1.1//EN" "http://www.w3.org/Graphics/SVG/1.1/DTD/svg11.dtd">
<svg version="1.1" xmlns="http://www.w3.org/2000/svg" xmlns:xlink="http://www.w3.org/1999/xlink" width="30" height="32" viewBox="0 0 30 32">
<path fill="#469c32" d="M4.951 16.23l-4.951-4.756v-0.352c0-0.215 0-0.432 0-0.646-0.017-2.924-0.061-9.020 5.9-10.225 3.851-0.778 6.522 1.805 8.877 4.082 0.275 0.275 0.567 0.55 0.85 0.825l0.652 0.613zM1.67 10.761l3.301 3.177 8.869-8.197-0.22-0.212c-2.162-2.091-4.401-4.253-7.389-3.648-3.851 0.778-4.594 3.851-4.561 8.588q0 0.146 0 0.292z"></path>
<path fill="#469c32" d="M7.57 32c-0.973-0.011-1.894-0.221-2.729-0.59-2.995-1.245-4.654-3.96-4.747-7.836-0.080-3.235-0.094-6.519-0.094-9.699q0-1.375 0-2.751v-1.967l4.965 4.786 10.076-9.311 0.314-0.311c2.335-2.302 4.973-4.924 8.833-4.198 5.977 1.125 6.019 7.221 6.038 10.15q0 1.276 0.030 2.556v0.974c0.041 3.133 0.083 6.374 0.047 9.565-0.041 3.879-1.65 6.616-4.676 7.92-3.576 1.546-6.104-0.132-8.184-1.832-0.409-0.307-0.769-0.636-1.094-0.997l-0.039-0.048-1.018-1.309-1.131 1.356c-0.332 0.377-0.692 0.714-1.082 1.013-1.525 1.273-3.275 2.53-5.508 2.53zM1.675 13.080q0 0.396 0 0.795c0 3.169 0 6.445 0.083 9.658s1.345 5.35 3.766 6.354c2.495 1.034 4.189 0.215 6.431-1.667l0.055-0.044c0.322-0.242 0.606-0.503 0.862-0.789l2.456-2.944 2.278 2.921c0.26 0.28 0.543 0.532 0.847 0.756l0.044 0.034c2.283 1.868 3.991 2.677 6.484 1.604 2.407-1.037 3.642-3.194 3.678-6.407v0c0.033-3.169 0-6.401-0.047-9.526v-0.96c0-0.867-0.022-1.719-0.030-2.575-0.030-4.726-0.825-7.801-4.676-8.527-3.026-0.567-5.232 1.626-7.364 3.738-0.294 0.294-0.589 0.583-0.88 0.864l-0.55 0.531-0.039-0.019-10.12 9.353z"></path>
</svg>
