<?xml version="1.0" encoding="utf-8"?>
<!-- Generated by IcoMoon.io -->
<!DOCTYPE svg PUBLIC "-//W3C//DTD SVG 1.1//EN" "http://www.w3.org/Graphics/SVG/1.1/DTD/svg11.dtd">
<svg version="1.1" xmlns="http://www.w3.org/2000/svg" xmlns:xlink="http://www.w3.org/1999/xlink" width="30" height="32" viewBox="0 0 30 32">
<path fill="#b95b8e" d="M30.153 12.673l-14.888 13.646-10.925-11.273-4.34-4.201c0-0.223 0-0.452 0-0.675-0.030-4.271 0.432-8.894 5.517-9.932 4.062-0.824 6.813 2.438 9.485 4.966l0.025 0.025c2.647-2.562 5.333-5.885 9.44-5.115 5.1 0.958 5.626 5.577 5.656 9.847 0.005 0.904 0.020 1.808 0.030 2.711z"></path>
<path fill="#a53e72" d="M15.265 26.319l-1.892 2.269c-0.314 0.354-0.655 0.67-1.025 0.951l-0.018 0.013c-2.359 1.986-4.524 3.248-7.717 1.922s-4.439-4.251-4.519-7.513c-0.094-4.365-0.094-8.745-0.094-13.115l4.34 4.181z"></path>
<path fill="#9c3267" d="M30.217 23.757c-0.035 3.263-1.207 6.178-4.41 7.553s-5.358 0.134-7.742-1.817c-0.394-0.29-0.74-0.601-1.053-0.943l-1.748-2.23 14.898-13.626c0.040 3.695 0.094 7.369 0.055 11.064z"></path>
</svg>
