<?xml version="1.0" encoding="utf-8"?>
<!-- Generated by IcoMoon.io -->
<!DOCTYPE svg PUBLIC "-//W3C//DTD SVG 1.1//EN" "http://www.w3.org/Graphics/SVG/1.1/DTD/svg11.dtd">
<svg version="1.1" xmlns="http://www.w3.org/2000/svg" xmlns:xlink="http://www.w3.org/1999/xlink" width="30" height="32" viewBox="0 0 30 32">
<path fill="#9c3267" d="M15.272 26.93l-10.908-11.258-4.364-4.2v-0.994c-0.016-2.927-0.058-9.021 5.9-10.229 3.849-0.78 6.522 1.804 8.884 4.082l0.298 0.274 0.29-0.287c2.319-2.3 4.956-4.92 8.816-4.194 5.977 1.125 6.023 7.22 6.040 10.149q0 0.991 0.022 1.99v0.95zM1.67 10.762l3.882 3.748 9.78 10.097 13.243-12.12v-0.205q0-0.999-0.022-1.996c-0.033-4.728-0.821-7.8-4.682-8.526-3.012-0.564-5.202 1.643-7.34 3.751-0.296 0.293-0.589 0.583-0.879 0.865l-0.589 0.567-0.578-0.578c-0.296-0.274-0.583-0.548-0.873-0.838-2.163-2.092-4.397-4.252-7.392-3.647-3.833 0.778-4.578 3.869-4.55 8.589z"></path>
<path fill="#9c3267" d="M7.57 32c-0.973-0.012-1.893-0.221-2.728-0.59-2.997-1.245-4.654-3.961-4.749-7.837-0.077-3.192-0.093-6.439-0.093-9.58q0-1.437 0-2.875v-1.969l5.552 5.361 10.875 11.225-2.275 2.738c-0.33 0.374-0.688 0.707-1.077 1.003l-0.018 0.013c-1.506 1.248-3.247 2.511-5.487 2.511zM1.676 13.079v0.912c0 3.129 0 6.365 0.082 9.541s1.344 5.352 3.765 6.355 4.052 0.274 6.163-1.446v-0.016l0.323-0.252c0.319-0.242 0.601-0.502 0.854-0.788l1.314-1.575-9.821-10.13z"></path>
<path fill="#9c3267" d="M22.875 31.893c-2.19 0-3.926-1.216-5.426-2.442-0.415-0.306-0.779-0.636-1.109-0.999l-0.038-0.044-2.122-2.738 16.055-14.691 0.036 2.694c0.041 3.176 0.085 6.459 0.049 9.689-0.041 3.877-1.662 6.615-4.684 7.918-0.81 0.375-1.757 0.6-2.755 0.613zM17.599 27.378c0.26 0.28 0.542 0.532 0.846 0.755l0.044 0.033c2.283 1.867 3.992 2.675 6.483 1.602 2.407-1.038 3.644-3.192 3.677-6.407v0c0.030-2.867 0-5.782-0.036-8.627l-12.186 11.129z"></path>
</svg>
