<?xml version="1.0" encoding="utf-8"?>
<!-- Generated by IcoMoon.io -->
<!DOCTYPE svg PUBLIC "-//W3C//DTD SVG 1.1//EN" "http://www.w3.org/Graphics/SVG/1.1/DTD/svg11.dtd">
<svg version="1.1" xmlns="http://www.w3.org/2000/svg" xmlns:xlink="http://www.w3.org/1999/xlink" width="30" height="32" viewBox="0 0 30 32">
<path fill="#a9972e" d="M28.858 12.238l0.024-0.022 1.131 1.221-0.024 0.022-1.131-1.221z"></path>
<path fill="#a9972e" d="M4.942 16.227l-4.942-4.755v-0.994c-0.018-2.927-0.058-9.020 5.901-10.23 3.848-0.778 6.519 1.793 8.878 4.085 0.292 0.277 0.569 0.548 0.848 0.813l0.653 0.612zM1.671 10.761l3.286 3.178 8.883-8.195-0.219-0.204c-2.163-2.102-4.399-4.262-7.388-3.659-3.845 0.778-4.598 3.863-4.563 8.589z"></path>
<path fill="#a9972e" d="M7.58 32c-0.973-0.016-1.893-0.229-2.726-0.601-3.008-1.233-4.664-3.95-4.76-7.825-0.079-3.195-0.093-6.44-0.093-9.58q0-1.437 0-2.875v-1.968l4.956 4.787 10.090-9.312 0.309-0.306c2.332-2.312 4.956-4.933 8.822-4.207 5.977 1.125 6.017 7.222 6.038 10.152q0 0.956 0.020 1.918v1.023l-14.35 13.12-1.749 2.108c-0.328 0.373-0.685 0.706-1.072 1.002l-0.018 0.013c-1.496 1.292-3.236 2.551-5.466 2.551zM1.676 13.079v0.915c0 3.131 0 6.367 0.082 9.539s1.344 5.353 3.767 6.356 4.052 0.292 6.163-1.458v-0.006l0.324-0.251c0.326-0.242 0.612-0.503 0.87-0.791l1.871-2.23 13.819-12.665v-0.277q0-0.962-0.020-1.924c-0.023-4.729-0.816-7.802-4.671-8.539-3-0.554-5.207 1.641-7.341 3.761-0.292 0.292-0.583 0.583-0.875 0.875l-0.583 0.563-0.038-0.038-10.099 9.329z"></path>
<path fill="#a9972e" d="M22.875 31.895c-2.189 0-3.915-1.207-5.411-2.431v0c-0.424-0.309-0.796-0.642-1.132-1.009l-0.037-0.046-2.122-2.735 16.061-14.691 0.035 2.676c0.041 3.181 0.085 6.469 0.050 9.706-0.041 3.878-1.662 6.615-4.685 7.918-0.81 0.375-1.756 0.599-2.753 0.612zM18.248 27.965v0l0.23 0.189c2.283 1.869 3.991 2.676 6.481 1.604 2.405-1.038 3.644-3.207 3.679-6.414v0c0.029-2.866 0-5.784-0.035-8.627l-12.169 11.149 1.166 1.501c0.198 0.215 0.41 0.411 0.636 0.589z"></path>
</svg>
