<svg xmlns="http://www.w3.org/2000/svg" viewBox="0 0 60.52 64.06"><defs><style>.cls-1{fill:#52bdd3;}.cls-2{fill:#3e8fa5;}</style></defs><title>aq_color</title><g id="Layer_2" data-name="Layer 2"><g id="Layer_1-2" data-name="Layer 1"><path class="cls-1" d="M60.49,47.55c-.07,6.53-2.42,12.36-8.83,15.12s-10.73.27-15.5-3.64h0A14.41,14.41,0,0,1,34,57.14l-3.49-4.49L8.7,30.08,30,10.38l.05.05C35.38,5.34,40.8-1.31,49,.23,59.19,2.15,60.24,11.4,60.3,19.94q0,2.71.06,5.43C60.46,32.76,60.57,40.17,60.49,47.55Z"/><path class="cls-2" d="M30.56,52.65l-3.79,4.54a14.4,14.4,0,0,1-2.09,1.93h0c-4.72,4-9.06,6.5-15.45,3.85S.35,54.5.19,48C0,39.22,0,30.46,0,21.71c0-.45,0-.9,0-1.36C-.06,11.81.87,2.55,11,.49c8.13-1.65,13.64,4.88,19,9.9L8.7,30.08Z"/></g></g></svg>