<svg xmlns="http://www.w3.org/2000/svg" viewBox="0 0 110.77 116.88"><defs><style>.cls-1{fill:#32859c;}</style></defs><title>aq_outline</title><g id="Layer_2" data-name="Layer 2"><g id="Layer_1-2" data-name="Layer 1"><path class="cls-1" d="M83.54,116.49c-8,0-14.3-4.41-19.77-8.88h0a27.55,27.55,0,0,1-4.11-3.7l-.12-.15L53.6,96.12,13.74,55,55.1,16.77l0,0,1-1C64.62,7.37,74.24-2.2,88.34.45c21.83,4.11,22,26.37,22.06,37.07q0,4.66.11,9.33l0,3.55c.15,11.45.3,23.28.17,34.93-.15,14.16-6.07,24.17-17.11,28.92A25.28,25.28,0,0,1,83.54,116.49Zm-16.9-14.36h0l.84.69c8.33,6.82,14.57,9.78,23.68,5.85,8.79-3.79,13.31-11.66,13.43-23.4h0c.12-11.58,0-23.38-.17-34.79l0-3.51c0-3.16-.08-6.28-.11-9.4-.12-17.27-3-28.49-17.1-31.14-11-2.07-19,6-26.8,13.7-1.08,1.07-2.15,2.13-3.21,3.16l-2,1.92-.14-.12L22.44,55.21,58.2,92.12l6.07,7.83A19.63,19.63,0,0,0,66.64,102.14Z"/><path class="cls-1" d="M27.64,116.88a25.42,25.42,0,0,1-9.8-2.09C6.74,110.18.68,100.26.34,86.1.05,74.44,0,62.59,0,51.12q0-5.26,0-10.51c0-.78,0-1.56,0-2.34C-.06,27.58-.22,5.32,21.55.91,35.61-1.94,45.37,7.5,54,15.82c1,1,2.07,2,3.1,3L59.46,21l-37,34.18L60,94l-8.3,10a27.41,27.41,0,0,1-4,3.74C42.17,112.28,35.81,116.88,27.64,116.88ZM26.46,6.49a18.64,18.64,0,0,0-3.7.38C8.72,9.72,6,21,6.09,38.24c0,.79,0,1.58,0,2.37q0,5.25,0,10.51c0,11.43,0,23.25.3,34.83s4.91,19.55,13.75,23.21c9.08,3.76,15.26.8,23.41-6l0,0,.25-.19A21.61,21.61,0,0,0,47,100l4.77-5.72L13.74,55,50.55,21l-.8-.77C42.77,13.45,35.58,6.49,26.46,6.49Z"/></g></g></svg>