<svg xmlns="http://www.w3.org/2000/svg" viewBox="0 0 64 67.53"><defs><style>.cls-1{fill:#282828;}</style></defs><title>black_nt_outline</title><g id="Layer_2" data-name="Layer 2"><g id="Layer_1-2" data-name="Layer 1"><line class="cls-1" x1="62.14" y1="27.07" x2="62.09" y2="27.12"/><path class="cls-1" d="M32.23,56.83l-23-23.76L0,24.21v-2.1C0,15.94-.12,3.07,12.45.53c8.12-1.64,13.76,3.81,18.73,8.62l.63.61.61-.61C37.34,4.26,42.9-1.27,51,.26,63.66,2.63,63.75,15.5,63.79,21.68q0,2.09,0,4.2l0,2ZM3.52,22.71l8.19,7.9L32.38,51.93,60.33,26.35v-.43q0-2.11,0-4.21c-.07-10-1.75-16.46-9.88-18-6.33-1.19-11,3.44-15.49,7.92-.62.62-1.24,1.23-1.86,1.83l-1.24,1.2-1.22-1.22c-.62-.58-1.23-1.17-1.84-1.77-4.56-4.41-9.28-9-15.59-7.7C5,5.61,3.45,12.12,3.52,22.09Z"/><path class="cls-1" d="M16,67.53a14.69,14.69,0,0,1-5.66-1.21C3.89,63.66.4,57.93.2,49.75,0,43,0,36.16,0,29.53q0-3,0-6.07V19.31L11.72,30.61,34.66,54.29,29.86,60a15.53,15.53,0,0,1-2.3,2.14h0C24.38,64.87,20.7,67.53,16,67.53ZM3.54,27.6v1.93c0,6.6,0,13.43.17,20.13S6.55,61,11.66,63.07s8.55.58,13-3v0l.68-.53a12.26,12.26,0,0,0,1.83-1.68l2.76-3.31L9.21,33.07Z"/><path class="cls-1" d="M48.27,67.31c-4.63,0-8.28-2.57-11.45-5.15A15.72,15.72,0,0,1,34.47,60L34.4,60l-4.48-5.77,33.88-31,.07,5.68c.09,6.7.18,13.63.11,20.45-.09,8.18-3.5,14-9.89,16.71A14.61,14.61,0,0,1,48.27,67.31ZM37.14,57.75A12.5,12.5,0,0,0,39,59.37l.06,0c4.82,3.94,8.42,5.65,13.68,3.38,5.08-2.19,7.69-6.74,7.76-13.52h0c.06-6,0-12.2-.08-18.21L34.68,54.58Z"/></g></g></svg>