<svg xmlns="http://www.w3.org/2000/svg" viewBox="0 0 63.48 66.98"><defs><style>.cls-1{fill:#282828;}</style></defs><title>black_mt_outline</title><g id="Layer_2" data-name="Layer 2"><g id="Layer_1-2" data-name="Layer 1"><path class="cls-1" d="M10.34,34,0,24v-.74c0-.45,0-.9,0-1.35C0,15.8-.12,3,12.35.52,20.41-1.11,26,4.3,30.93,9.07c.6.58,1.19,1.15,1.78,1.7L34.07,12ZM3.49,22.52l6.9,6.65L29,12l-.46-.45C24,7.2,19.3,2.67,13,3.94,5,5.57,3.42,12,3.49,21.91Q3.49,22.22,3.49,22.52Z"/><path class="cls-1" d="M15.84,67a14.56,14.56,0,0,1-5.62-1.2C3.86,63.14.39,57.45.2,49.34,0,42.57,0,35.69,0,29q0-2.89,0-5.77V19.16l10.39,10L31.48,9.7l0,0,.66-.65C37,4.22,42.55-1.26,50.63.26,63.14,2.61,63.22,15.37,63.26,21.5q0,2.67.06,5.35l0,2c.08,6.56.17,13.34.1,20C63.36,57,60,62.75,53.65,65.48c-7.5,3.23-12.78-.28-17.13-3.84a15.76,15.76,0,0,1-2.33-2.1l-.07-.09L32,56.72l-2.37,2.84a15.61,15.61,0,0,1-2.31,2.15C24.16,64.35,20.52,67,15.84,67ZM3.5,27.38q0,.83,0,1.66c0,6.63,0,13.49.17,20.22s2.82,11.2,7.88,13.3c5.22,2.17,8.77.45,13.46-3.49l.11-.09A12.3,12.3,0,0,0,27,57.31l5.13-6.15,4.75,6.12a12.56,12.56,0,0,0,1.81,1.6l.06,0c4.78,3.91,8.36,5.6,13.57,3.35,5-2.17,7.63-6.68,7.7-13.41h0c.07-6.63,0-13.4-.1-19.94l0-2c0-1.81,0-3.6-.06-5.39C59.71,11.64,58,5.2,50,3.68,43.7,2.5,39.09,7.1,34.62,11.54c-.62.61-1.23,1.22-1.84,1.81l-1.15,1.11-.08-.07L10.34,34Z"/></g></g></svg>