<svg xmlns="http://www.w3.org/2000/svg" viewBox="0 0 58.06 61.26"><defs><style>.cls-1{fill:#282828;}</style></defs><title>black_sp_outline</title><g id="Layer_2" data-name="Layer 2"><g id="Layer_1-2" data-name="Layer 1"><rect class="cls-1" x="56.32" y="22.98" width="0.06" height="3.19" transform="translate(-1.69 44.84) rotate(-42.81)"/><path class="cls-1" d="M9.46,31.07,0,22v-1.9C0,14.46-.11,2.79,11.3.48c7.37-1.49,12.48,3.45,17,7.81.55.53,1.09,1.05,1.63,1.56L31.16,11ZM3.2,20.6l6.31,6.08L26.5,11l-.42-.41c-4.14-4-8.42-8.14-14.14-7C4.57,5.09,3.13,11,3.2,20Z"/><path class="cls-1" d="M14.49,61.26a13.32,13.32,0,0,1-5.14-1.1c-5.82-2.42-9-7.61-9.17-15C0,39,0,32.8,0,26.79Q0,24,0,21.29V17.52l9.51,9.16L28.81,8.86l0,0,.59-.59C33.87,3.86,38.92-1.15,46.3.24,57.74,2.39,57.83,14.06,57.86,19.67q0,1.83,0,3.67l0,2L30.46,50.43l-3.37,4A14.08,14.08,0,0,1,25,56.41h0C22.11,58.84,18.78,61.26,14.49,61.26ZM3.21,25v1.75c0,6,0,12.19.16,18.26S5.94,55.3,10.58,57.22s7.76.53,11.8-2.77v0l.62-.48a11.12,11.12,0,0,0,1.66-1.52l3.57-4.26,26.5-24.25v-.53q0-1.84,0-3.69c-.06-9-1.58-14.93-9-16.32-5.74-1.08-10,3.12-14.05,7.18-.57.56-1.13,1.12-1.68,1.66l-1.12,1.07-.07-.07L9.46,31.07Z"/><path class="cls-1" d="M43.79,61.06c-4.19,0-7.49-2.31-10.36-4.66h0a14.3,14.3,0,0,1-2.16-1.94l-.06-.08-4.06-5.24L57.87,21l.07,5.13c.08,6.09.16,12.38.1,18.58-.08,7.42-3.18,12.67-9,15.16A13.25,13.25,0,0,1,43.79,61.06Zm-8.86-7.53h0l.44.36C39.76,57.47,43,59,47.81,57c4.61-2,7-6.11,7-12.27h0c.06-5.49,0-11.07-.07-16.52L31.46,49.51l2.23,2.87A10.19,10.19,0,0,0,34.93,53.53Z"/></g></g></svg>