<svg xmlns="http://www.w3.org/2000/svg" viewBox="0 0 192.1 44.01"><defs><style>.cls-1{fill:none;}.cls-2{fill:#1d1d1d;}.cls-3{fill:#2f2f2f;}.cls-4,.cls-6{fill:#0e0e0e;}.cls-5{fill:#3f3f3f;}.cls-6{font-size:33.93px;font-family:Sailec-Bold, Sailec;font-weight:700;letter-spacing:-0.08em;}.cls-7{letter-spacing:-0.07em;}.cls-8{letter-spacing:-0.08em;}.cls-9{letter-spacing:-0.08em;}.cls-10{letter-spacing:-0.07em;}</style></defs><title>black_regular</title><g id="Layer_2" data-name="Layer 2"><g id="Layer_1-2" data-name="Layer 1"><line class="cls-1" x1="41.51" y1="17.4" x2="41.47" y2="17.43"/><path class="cls-2" d="M20.63,7.13,6,20.67,0,14.92V14C0,8.11.6,1.75,7.59.33,13.18-.8,17,3.69,20.63,7.13Z"/><path class="cls-3" d="M41.47,17.43,21,36.17,6,20.67,20.63,7.13l0,0c3.64-3.5,7.36-8.07,13-7,7,1.32,7.73,7.67,7.77,13.55Q41.45,15.57,41.47,17.43Z"/><path class="cls-4" d="M21,36.17l-2.6,3.12A9.79,9.79,0,0,1,17,40.62h0c-3.24,2.73-6.22,4.46-10.61,2.65S.24,37.44.13,33C0,27,0,20.93,0,14.92l6,5.75Z"/><path class="cls-5" d="M41.56,32.67c0,4.49-1.66,8.49-6.07,10.39s-7.37.18-10.65-2.5h0a9.79,9.79,0,0,1-1.46-1.3L21,36.17,41.47,17.43C41.54,22.51,41.61,27.6,41.56,32.67Z"/><text class="cls-6" transform="translate(44.28 30.65)">m<tspan class="cls-7" x="28.7" y="0">edi</tspan><tspan class="cls-8" x="74.03" y="0">a</tspan><tspan class="cls-7" x="90.07" y="0">b</tspan><tspan class="cls-9" x="109.99" y="0">e</tspan><tspan class="cls-10" x="127.66" y="0">lt</tspan></text></g></g></svg>