<svg xmlns="http://www.w3.org/2000/svg" viewBox="0 0 64 67.68"><defs><style>.cls-1{fill:#282828;}</style></defs><title>black_ed_outline</title><g id="Layer_2" data-name="Layer 2"><g id="Layer_1-2" data-name="Layer 1"><path class="cls-1" d="M10.45,34.32,0,24.26v-.75c0-.45,0-.9,0-1.35C0,16-.13,3.08,12.48.53c8.14-1.65,13.79,3.82,18.78,8.64.6.58,1.2,1.16,1.79,1.72l1.38,1.29ZM3.53,22.76l7,6.72L29.27,12.14l-.46-.45c-4.57-4.42-9.3-9-15.63-7.72C5.05,5.63,3.46,12.15,3.53,22.14Z"/><path class="cls-1" d="M16,67.68a14.72,14.72,0,0,1-5.68-1.21C3.9,63.8.4,58.05.2,49.86,0,43.1,0,36.24,0,29.6q0-3,0-6.09V19.36L10.5,29.48,31.91,9.71l0,0,.58-.57C37.42,4.27,43-1.27,51.16.26,63.79,2.64,63.88,15.53,63.93,21.73q0,2.7.06,5.41v.79l-.58.56L33.65,55.72l-3.72,4.46a15.77,15.77,0,0,1-2.33,2.17C24.42,65,20.74,67.68,16,67.68Zm-12.47-40V29.6c0,6.62,0,13.46.17,20.17s2.85,11.32,8,13.44,8.84.47,13.55-3.48l0,0,.14-.11a12.42,12.42,0,0,0,1.84-1.68l3.94-4.7L60.46,26.41q0-2.33-.05-4.66c-.07-10-1.75-16.5-9.9-18C44.16,2.53,39.5,7.17,35,11.65c-.62.62-1.24,1.24-1.86,1.83L32,14.61l-.08-.07L10.45,34.32Z"/></g></g></svg>