<svg xmlns="http://www.w3.org/2000/svg" viewBox="0 0 547.05 769.08"><defs><style>.cls-1{fill:#e2e2e2;stroke:#1e1e1e;stroke-miterlimit:10;stroke-width:7px;}.cls-2{fill:#b95b8e;}.cls-3{fill:#a53e72;}.cls-4{fill:#9c3267;}</style></defs><title>card3</title><g id="Layer_2" data-name="Layer 2"><g id="Layer_1-2" data-name="Layer 1"><rect class="cls-1" x="3.5" y="3.5" width="540.05" height="762.08"/><path class="cls-2" d="M359.78,365.79l-85.4,78.15-62.63-64.65-24.9-24c0-1.29,0-2.59,0-3.89-.17-24.49,2.48-51,31.64-56.93,23.31-4.72,39.07,14,54.39,28.35l.16.15c15.17-14.61,30.71-33.66,54.15-29.25,29.24,5.5,32.25,32,32.42,56.49C359.65,355.41,359.72,360.59,359.78,365.79Z"/><path class="cls-3" d="M274.38,443.94l-10.86,13a40.57,40.57,0,0,1-6,5.52h0c-13.52,11.37-26,18.62-44.26,11-18.47-7.66-25.43-24.28-25.89-43-.61-25.06-.46-50.17-.53-75.24l24.9,24Z"/><path class="cls-4" d="M360.15,429.34c-.2,18.71-6.93,35.42-25.3,43.34-18.2,7.84-30.73.77-44.41-10.42a40.93,40.93,0,0,1-6.07-5.44l-10-12.88,85.4-78.15C360.05,387,360.37,408.17,360.15,429.34Z"/></g></g></svg>