<svg xmlns="http://www.w3.org/2000/svg" viewBox="0 0 547.05 769.08"><defs><style>.cls-1{fill:#e2e2e2;stroke:#1e1e1e;stroke-miterlimit:10;stroke-width:7px;}.cls-2{fill:#52bdd3;}.cls-3{fill:#3e8fa5;}</style></defs><title>card2</title><g id="Layer_2" data-name="Layer 2"><g id="Layer_1-2" data-name="Layer 1"><rect class="cls-1" x="3.5" y="3.5" width="540.05" height="762.08"/><path class="cls-2" d="M359.19,428.86c-.2,18.65-6.9,35.3-25.21,43.18-18.13,7.81-30.62.77-44.25-10.39h0a41.13,41.13,0,0,1-6-5.42l-10-12.83L211.31,379l60.92-56.25.16.15c15.11-14.56,30.59-33.54,54-29.15,29.13,5.48,32.14,31.89,32.31,56.29q.07,7.75.18,15.5C359.1,386.63,359.42,407.76,359.19,428.86Z"/><path class="cls-3" d="M273.73,443.41l-10.81,13a41.12,41.12,0,0,1-6,5.5h0c-13.47,11.33-25.86,18.55-44.1,11-18.41-7.64-25.34-24.19-25.8-42.83-.61-25-.45-50-.53-75,0-1.29,0-2.58,0-3.87-.17-24.4,2.48-50.84,31.53-56.73,23.22-4.7,38.94,13.93,54.21,28.25L211.31,379Z"/></g></g></svg>