<svg xmlns="http://www.w3.org/2000/svg" viewBox="0 0 547.05 769.08"><defs><style>.cls-1{fill:#e2e2e2;stroke:#1e1e1e;stroke-miterlimit:10;stroke-width:7px;}.cls-2{fill:#51a53f;}.cls-3{fill:#70b95b;}</style></defs><title>card4</title><g id="Layer_2" data-name="Layer 2"><g id="Layer_1-2" data-name="Layer 1"><rect class="cls-1" x="3.5" y="3.5" width="540.05" height="762.08"/><path class="cls-2" d="M272.88,323.07l-60.27,55.66-24.55-23.66c0-1.27,0-2.55,0-3.83-.17-24.14,2.45-50.31,31.19-56.13C242.23,290.46,257.78,308.89,272.88,323.07Z"/><path class="cls-3" d="M358.93,428.08c-.19,18.45-6.83,34.92-24.93,42.73-17.94,7.73-30.3.76-43.79-10.28a40.75,40.75,0,0,1-6-5.37l-9.85-12.7L263.67,455.3a40.34,40.34,0,0,1-5.91,5.45h0c-13.33,11.21-25.59,18.36-43.63,10.87-18.22-7.56-25.08-23.94-25.52-42.38-.6-24.71-.46-49.47-.52-74.18l24.55,23.66,60.27-55.66.15.15c15-14.4,30.27-33.19,53.39-28.84,28.82,5.43,31.8,31.55,32,55.7q.07,7.67.18,15.34C358.84,386.29,359.15,407.2,358.93,428.08Z"/></g></g></svg>