<svg xmlns="http://www.w3.org/2000/svg" viewBox="0 0 547.05 769.08"><defs><style>.cls-1{fill:#e2e2e2;stroke:#1e1e1e;stroke-miterlimit:10;stroke-width:7px;}.cls-2{fill:#a55d32;}.cls-3{fill:#cc7441;}</style></defs><title>card5</title><g id="Layer_2" data-name="Layer 2"><g id="Layer_1-2" data-name="Layer 1"><rect class="cls-1" x="3.5" y="3.5" width="540.05" height="762.08"/><path class="cls-2" d="M268.85,322.84l-61.13,56.45-24.9-24c0-1.29,0-2.59,0-3.89-.17-24.49,2.49-51,31.64-56.93C237.75,289.77,253.52,308.46,268.85,322.84Z"/><path class="cls-3" d="M355.76,365.79l-85.41,78.15L259.5,457a40.91,40.91,0,0,1-6,5.52h0c-13.51,11.37-26,18.62-44.26,11-18.47-7.66-25.43-24.28-25.89-43-.61-25.06-.46-50.17-.53-75.24l24.9,24,61.13-56.45.16.15c15.17-14.61,30.7-33.66,54.15-29.25,29.24,5.5,32.25,32,32.42,56.49Q355.65,358,355.76,365.79Z"/></g></g></svg>