<svg xmlns="http://www.w3.org/2000/svg" viewBox="0 0 547.05 769.08"><defs><style>.cls-1{fill:#e2e2e2;stroke:#1e1e1e;stroke-miterlimit:10;stroke-width:7px;}.cls-2{fill:#a9972e;}.cls-3{fill:#c6b663;}.cls-4{fill:#b2a03a;}</style></defs><title>card6</title><g id="Layer_2" data-name="Layer 2"><g id="Layer_1-2" data-name="Layer 1"><rect class="cls-1" x="3.5" y="3.5" width="540.05" height="762.08"/><path class="cls-2" d="M272.88,323.36l-60,55.39-24.43-23.54c0-1.27,0-2.54,0-3.81-.17-24,2.43-50.07,31.05-55.86C242.38,290.91,257.85,309.25,272.88,323.36Z"/><path class="cls-3" d="M358.17,365.5l-83.8,76.69L263.71,455a39.81,39.81,0,0,1-5.88,5.42h0c-13.27,11.15-25.47,18.27-43.43,10.82-18.13-7.52-25-23.82-25.4-42.18-.6-24.59-.45-49.23-.52-73.83l24.43,23.54,60-55.39.15.15c14.88-14.34,30.13-33,53.14-28.7,28.69,5.4,31.65,31.4,31.82,55.43C358,355.32,358.11,360.41,358.17,365.5Z"/><path class="cls-4" d="M358.53,427.87c-.19,18.36-6.8,34.76-24.82,42.53-17.86,7.69-30.16.75-43.57-10.23h0a40.17,40.17,0,0,1-6-5.34l-9.81-12.63,83.8-76.69C358.43,386.29,358.75,407.09,358.53,427.87Z"/></g></g></svg>