<svg xmlns="http://www.w3.org/2000/svg" viewBox="0 0 547.05 769.08"><defs><style>.cls-1{fill:#e2e2e2;stroke:#1e1e1e;stroke-miterlimit:10;stroke-width:7px;}.cls-2{fill:none;}.cls-3{fill:#5c3ea5;}.cls-4{fill:#684eaf;}.cls-5{fill:#52329c;}.cls-6{fill:#735bb9;}</style></defs><title>card1</title><g id="Layer_2" data-name="Layer 2"><g id="Layer_1-2" data-name="Layer 1"><rect class="cls-1" x="3.5" y="3.5" width="540.05" height="762.08"/><line class="cls-2" x1="359.63" y1="365.39" x2="359.48" y2="365.53"/><path class="cls-3" d="M272.88,322.73,212,379l-24.81-23.91V351.2c-.17-24.4,2.48-50.85,31.53-56.73C241.9,289.78,257.61,308.4,272.88,322.73Z"/><path class="cls-4" d="M359.48,365.53l-85.1,77.88L212,379l60.91-56.25.16.15c15.11-14.55,30.59-33.54,54-29.15,29.13,5.48,32.14,31.89,32.31,56.29Q359.37,357.77,359.48,365.53Z"/><path class="cls-5" d="M274.38,443.4l-10.82,13a40.66,40.66,0,0,1-6,5.5h0c-13.47,11.33-25.87,18.55-44.1,11-18.41-7.64-25.34-24.19-25.8-42.83-.61-25-.46-50-.53-75L212,379Z"/><path class="cls-6" d="M359.84,428.86c-.2,18.65-6.9,35.3-25.21,43.19-18.13,7.81-30.62.76-44.25-10.38h0a40.66,40.66,0,0,1-6-5.42l-10-12.83,85.1-77.88C359.75,386.63,360.07,407.76,359.84,428.86Z"/></g></g></svg>