<svg xmlns="http://www.w3.org/2000/svg" viewBox="0 0 64 67.92"><defs><style>.cls-1{fill:#a55d32;}.cls-2{fill:#cc7441;}</style></defs><title>ed_color</title><g id="Layer_2" data-name="Layer 2"><g id="Layer_1-2" data-name="Layer 1"><path class="cls-1" d="M31.84,11,9.22,31.9,0,23c0-.48,0-1,0-1.44C-.06,12.52.92,2.7,11.71.52,20.34-1.23,26.17,5.69,31.84,11Z"/><path class="cls-2" d="M64,26.9,32.4,55.82l-4,4.82a15.14,15.14,0,0,1-2.22,2h0c-5,4.21-9.6,6.89-16.38,4.08S.37,57.78.2,50.86C0,41.59,0,32.29,0,23L9.22,31.9,31.84,11l.06.06C37.51,5.66,43.26-1.39,51.93.24c10.82,2,11.94,11.84,12,20.9Q64,24,64,26.9Z"/></g></g></svg>