<svg xmlns="http://www.w3.org/2000/svg" viewBox="0 0 109.97 116.29"><defs><style>.cls-1{fill:#a55d32;}</style></defs><title>ed_outline</title><g id="Layer_2" data-name="Layer 2"><g id="Layer_1-2" data-name="Layer 1"><path class="cls-1" d="M18,59,0,41.69V40.4c0-.77,0-1.54,0-2.32C-.06,27.44-.22,5.29,21.45.9c14-2.83,23.7,6.56,32.26,14.84,1,1,2.06,2,3.08,3l2.37,2.23ZM6.07,39.11,18,50.65,50.3,20.87l-.8-.77c-7.86-7.6-16-15.45-26.86-13.26C8.68,9.67,5.95,20.87,6.07,38Z"/><path class="cls-1" d="M27.51,116.29a25.3,25.3,0,0,1-9.75-2.08C6.71,109.62.68,99.75.34,85.66.06,74.06,0,62.27,0,50.86q0-5.23,0-10.46l0-7.15L18,50.65l36.78-34,0,0,1-1C64.3,7.33,73.87-2.19,87.9.45c21.72,4.09,21.87,26.24,21.94,36.89q0,4.64.11,9.29L110,48l-1,1L57.82,95.74l-6.39,7.66a27.1,27.1,0,0,1-4,3.72C42,111.72,35.64,116.29,27.51,116.29ZM6.09,47.53v3.33c0,11.37,0,23.13.3,34.66s4.89,19.45,13.68,23.1c9,3.75,15.18.8,23.29-6l0,0,.25-.19a21.33,21.33,0,0,0,3.15-2.89l6.77-8.08,50.3-46q-.05-4-.09-8c-.12-17.18-3-28.35-17-31-10.9-2-18.91,5.92-26.67,13.63C59,21.09,58,22.15,56.91,23.17l-2,1.92L54.77,25,18,59Z"/></g></g></svg>