<svg xmlns="http://www.w3.org/2000/svg" viewBox="0 0 61.79 65.42"><defs><style>.cls-1{fill:#51a53f;}.cls-2{fill:#70b95b;}</style></defs><title>mt_color</title><g id="Layer_2" data-name="Layer 2"><g id="Layer_1-2" data-name="Layer 1"><path class="cls-1" d="M30.66,10.6,8.88,30.72,0,22.17c0-.46,0-.92,0-1.39C-.06,12.06.89,2.6,11.28.5,19.59-1.18,25.2,5.48,30.66,10.6Z"/><path class="cls-2" d="M61.77,48.56c-.07,6.67-2.47,12.62-9,15.44s-11,.27-15.83-3.71a14.73,14.73,0,0,1-2.16-1.94L31.2,53.76,27.33,58.4a14.58,14.58,0,0,1-2.14,2h0C20.38,64.42,15.94,67,9.42,64.3S.36,55.65.2,49C0,40.05,0,31.1,0,22.17l8.87,8.55L30.66,10.6l.06.05C36.13,5.45,41.66-1.34,50,.23c10.42,2,11.5,11.41,11.55,20.13q0,2.77.07,5.55C61.73,33.46,61.85,41,61.77,48.56Z"/></g></g></svg>