<svg xmlns="http://www.w3.org/2000/svg" viewBox="0 0 110.25 116.33"><defs><style>.cls-1{fill:#469c32;}</style></defs><title>mt_outline</title><g id="Layer_2" data-name="Layer 2"><g id="Layer_1-2" data-name="Layer 1"><path class="cls-1" d="M18,59,0,41.71V40.43c0-.78,0-1.57,0-2.35C-.06,27.45-.22,5.29,21.45.91c14-2.83,23.71,6.56,32.27,14.84,1,1,2.06,2,3.09,3l2.37,2.23ZM6.07,39.12l12,11.55L50.31,20.87l-.8-.77c-7.86-7.6-16-15.46-26.86-13.26-14,2.83-16.7,14-16.58,31.22Q6.07,38.59,6.07,39.12Z"/><path class="cls-1" d="M27.52,116.33a25.29,25.29,0,0,1-9.76-2.08C6.71,109.66.68,99.79.34,85.7.05,73.94,0,62,0,50.44q0-5,0-10l0-7.15,18.05,17.4L54.68,16.84l0,0,1.14-1.13C64.31,7.34,73.9-2.19,87.93.45c21.73,4.09,21.88,26.25,21.95,36.9q0,4.64.11,9.29l0,3.54c.15,11.39.3,23.17.17,34.77-.15,14.1-6,24.05-17,28.79-13,5.62-22.19-.48-29.75-6.66a27.36,27.36,0,0,1-4-3.65l-.12-.15-3.7-4.76-4.11,4.93a27.12,27.12,0,0,1-4,3.73C42,111.76,35.64,116.33,27.52,116.33ZM6.09,47.55q0,1.44,0,2.89c0,11.52,0,23.43.3,35.11s4.89,19.45,13.69,23.1c9.07,3.76,15.23.78,23.38-6.06l.2-.16a21.37,21.37,0,0,0,3.15-2.89l8.91-10.68L64,99.48a21.82,21.82,0,0,0,3.14,2.79l.1.08c8.3,6.79,14.51,9.73,23.57,5.83,8.75-3.77,13.24-11.61,13.37-23.29h0c.12-11.52,0-23.27-.17-34.63l0-3.49c0-3.15-.08-6.25-.11-9.36-.11-17.18-3-28.36-17-31C75.9,4.35,67.88,12.32,60.13,20c-1.07,1.07-2.14,2.12-3.2,3.14l-2,1.93L54.79,25,18,59Z"/></g></g></svg>