<svg xmlns="http://www.w3.org/2000/svg" viewBox="0 0 60.88 64.44"><defs><style>.cls-1{fill:#b95b8e;}.cls-2{fill:#a53e72;}.cls-3{fill:#9c3267;}</style></defs><title>nt_color</title><g id="Layer_2" data-name="Layer 2"><g id="Layer_1-2" data-name="Layer 1"><path class="cls-1" d="M60.72,25.52,30.74,53l-22-22.7L0,21.84c0-.45,0-.91,0-1.36-.06-8.6.87-17.91,11.11-20,8.18-1.66,13.72,4.91,19.1,10l.05.05C35.59,5.37,41-1.32,49.27.23,59.54,2.16,60.6,11.46,60.66,20.06,60.67,21.88,60.7,23.7,60.72,25.52Z"/><path class="cls-2" d="M30.74,53l-3.81,4.57a14.24,14.24,0,0,1-2.1,1.94h0c-4.75,4-9.11,6.54-15.54,3.87S.35,54.82.19,48.25C0,39.46,0,30.64,0,21.84l8.74,8.42Z"/><path class="cls-3" d="M60.85,47.84c-.07,6.57-2.43,12.44-8.88,15.21s-10.79.27-15.59-3.66a14.37,14.37,0,0,1-2.13-1.91L30.74,53l30-27.44C60.82,33,60.93,40.4,60.85,47.84Z"/></g></g></svg>