<svg xmlns="http://www.w3.org/2000/svg" viewBox="0 0 110.77 116.88"><defs><style>.cls-1{fill:#792b2d;}.cls-2{fill:#9c3267;}</style></defs><title>nt_outline</title><g id="Layer_2" data-name="Layer 2"><g id="Layer_1-2" data-name="Layer 1"><line class="cls-1" x1="107.56" y1="46.86" x2="107.47" y2="46.94"/><path class="cls-2" d="M55.78,98.36,15.94,57.24,0,41.9l0-3.63C-.06,27.58-.21,5.32,21.55.91,35.61-1.94,45.37,7.5,54,15.82l1.09,1,1.06-1.05C64.62,7.37,74.25-2.2,88.35.45c21.83,4.11,22,26.37,22.06,37.07q0,3.62.08,7.27l0,3.47ZM6.1,39.31,20.28,53,56,89.88l48.37-44.27v-.75q0-3.65-.08-7.29c-.12-17.27-3-28.49-17.1-31.14-11-2.06-19,6-26.81,13.7-1.08,1.07-2.15,2.13-3.21,3.16l-2.15,2.07-2.11-2.11c-1.08-1-2.13-2-3.19-3.06-7.9-7.64-16.06-15.53-27-13.32C8.72,9.71,6,21,6.1,38.24Z"/><path class="cls-2" d="M27.65,116.88a25.42,25.42,0,0,1-9.8-2.09C6.74,110.18.69,100.26.34,86.1.06,74.44,0,62.58,0,51.11q0-5.25,0-10.5l0-7.19L20.28,53,60,94l-8.31,10a26.88,26.88,0,0,1-4,3.71h0C42.19,112.27,35.83,116.88,27.65,116.88ZM6.12,47.77v3.33c0,11.43,0,23.25.3,34.85s4.91,19.55,13.75,23.21,14.8,1,22.51-5.28v-.06l1.18-.92A21.22,21.22,0,0,0,47,100l4.78-5.73-35.87-37Z"/><path class="cls-2" d="M83.55,116.49c-8,0-14.34-4.44-19.82-8.92a27.2,27.2,0,0,1-4.07-3.67l-.12-.14-7.75-10,58.64-53.66.13,9.84c.15,11.6.31,23.59.18,35.39-.15,14.16-6.07,24.16-17.11,28.92A25.28,25.28,0,0,1,83.55,116.49ZM64.28,100a21.64,21.64,0,0,0,3.15,2.8l.1.08c8.34,6.82,14.58,9.77,23.68,5.85,8.79-3.79,13.31-11.66,13.43-23.4h0c.11-10.47,0-21.12-.13-31.51L60,94.47Z"/></g></g></svg>