<svg xmlns="http://www.w3.org/2000/svg" viewBox="0 0 104.03 109.76"><defs><style>.cls-1{fill:#a9972e;}</style></defs><title>sp_outline</title><g id="Layer_2" data-name="Layer 2"><g id="Layer_1-2" data-name="Layer 1"><rect class="cls-1" x="100.91" y="41.18" width="0.11" height="5.71" transform="translate(-3.03 80.34) rotate(-42.81)"/><path class="cls-1" d="M16.95,55.66,0,39.35V35.94C-.06,25.9-.2,5,20.24.85,33.44-1.82,42.6,7,50.69,14.86c1,.95,1.95,1.88,2.91,2.79l2.24,2.1ZM5.73,36.91,17,47.81,47.47,19.7,46.72,19C39.3,11.79,31.63,4.38,21.38,6.45,8.19,9.12,5.61,19.7,5.73,35.91Z"/><path class="cls-1" d="M26,109.76a23.87,23.87,0,0,1-9.2-2C6.33,103.47.65,94.15.32,80.86.05,69.9,0,58.77,0,48q0-4.93,0-9.86l0-6.75L17,47.81,51.61,15.87l0,0,1.06-1.05c8-7.93,17-16.92,30.26-14.43,20.5,3.86,20.64,24.77,20.71,34.82q0,3.28.07,6.58l0,3.51-49.22,45-6,7.23a25.22,25.22,0,0,1-3.74,3.48h0C39.62,105.44,33.65,109.76,26,109.76ZM5.75,44.86V48c0,10.74,0,21.84.28,32.72s4.61,18.36,12.92,21.8,13.9,1,21.14-5V97.5l1.11-.86a19.93,19.93,0,0,0,3-2.73l6.4-7.63L98,42.84v-.95q0-3.3-.07-6.6C97.85,19.07,95.13,8.53,81.91,6,71.62,4.1,64.05,11.63,56.73,18.9c-1,1-2,2-3,3l-2,1.93-.13-.13-34.64,32Z"/><path class="cls-1" d="M78.46,109.4c-7.51,0-13.43-4.14-18.56-8.34h0A25.62,25.62,0,0,1,56,97.58l-.11-.14-7.28-9.38L103.7,37.67l.12,9.18c.14,10.91.29,22.19.17,33.29-.14,13.3-5.7,22.69-16.07,27.16A23.74,23.74,0,0,1,78.46,109.4ZM62.59,95.92h0l.79.65c7.83,6.41,13.69,9.18,22.23,5.5,8.25-3.56,12.5-11,12.62-22h0c.1-9.83,0-19.84-.12-29.59L56.37,88.72l4,5.15A18.26,18.26,0,0,0,62.59,95.92Z"/></g></g></svg>