<svg xmlns="http://www.w3.org/2000/svg" viewBox="0 0 45.59 48.01"><defs><style>.cls-1{fill:none;stroke:#e2e2e2;stroke-miterlimit:10;stroke-width:4px;}</style></defs><title>white_icon_outline</title><g id="Layer_2" data-name="Layer 2"><g id="Layer_1-2" data-name="Layer 1"><path class="cls-1" d="M22.64,9.13,8,22.67,2,16.92V16c0-5.87.6-12.24,7.59-13.65C15.19,1.2,19,5.69,22.64,9.13Z"/><path class="cls-1" d="M43.48,19.43,23,38.17,8,22.67,22.64,9.13l0,0c3.64-3.5,7.36-8.07,13-7,7,1.32,7.73,7.67,7.77,13.55Q43.46,17.57,43.48,19.43Z"/><path class="cls-1" d="M23,38.17,20.4,41.3A9.79,9.79,0,0,1,19,42.62h0c-3.24,2.73-6.22,4.46-10.61,2.65S2.25,39.44,2.14,35C2,29,2,22.93,2,16.92l6,5.75Z"/><path class="cls-1" d="M43.57,34.67c0,4.49-1.66,8.49-6.07,10.39s-7.37.18-10.65-2.5h0a9.79,9.79,0,0,1-1.46-1.3L23,38.17,43.48,19.43C43.55,24.51,43.62,29.6,43.57,34.67Z"/></g></g></svg>